%TF.GenerationSoftware,KiCad,Pcbnew,10.0.6*%
%TF.CreationDate,2026-10-05T16:39:14-07:00*%
%TF.ProjectId,xiao-bma400,7869616f-2d62-46d6-9134-30302e6b6963,D*%
%TF.SameCoordinates,Original*%
%TF.FileFunction,Legend,Top*%
%TF.FilePolarity,Positive*%
%FSLAX46Y46*%
G04 Gerber Fmt 4.6, Leading zero omitted, Abs format (unit mm)*
G04 Created by KiCad (PCBNEW 10.0.6) date 2026-10-05 16:39:14*
%MOMM*%
%LPD*%
G01*
G04 APERTURE LIST*
%ADD10C,0.130000*%
%ADD11C,0.100000*%
%ADD12C,0.120000*%
G04 APERTURE END LIST*
D10*
X156991667Y-115193942D02*
X156620238Y-115193942D01*
X156805952Y-115193942D02*
X156805952Y-114543942D01*
X156805952Y-114543942D02*
X156744048Y-114636799D01*
X156744048Y-114636799D02*
X156682143Y-114698704D01*
X156682143Y-114698704D02*
X156620238Y-114729656D01*
X157239286Y-115162990D02*
X157332143Y-115193942D01*
X157332143Y-115193942D02*
X157486905Y-115193942D01*
X157486905Y-115193942D02*
X157548810Y-115162990D01*
X157548810Y-115162990D02*
X157579762Y-115132037D01*
X157579762Y-115132037D02*
X157610715Y-115070132D01*
X157610715Y-115070132D02*
X157610715Y-115008228D01*
X157610715Y-115008228D02*
X157579762Y-114946323D01*
X157579762Y-114946323D02*
X157548810Y-114915370D01*
X157548810Y-114915370D02*
X157486905Y-114884418D01*
X157486905Y-114884418D02*
X157363096Y-114853466D01*
X157363096Y-114853466D02*
X157301191Y-114822513D01*
X157301191Y-114822513D02*
X157270238Y-114791561D01*
X157270238Y-114791561D02*
X157239286Y-114729656D01*
X157239286Y-114729656D02*
X157239286Y-114667751D01*
X157239286Y-114667751D02*
X157270238Y-114605847D01*
X157270238Y-114605847D02*
X157301191Y-114574894D01*
X157301191Y-114574894D02*
X157363096Y-114543942D01*
X157363096Y-114543942D02*
X157517857Y-114543942D01*
X157517857Y-114543942D02*
X157610715Y-114574894D01*
X158694048Y-115193942D02*
X158384524Y-115193942D01*
X158384524Y-115193942D02*
X158384524Y-114543942D01*
X158910714Y-115193942D02*
X158910714Y-114760609D01*
X158910714Y-114543942D02*
X158879762Y-114574894D01*
X158879762Y-114574894D02*
X158910714Y-114605847D01*
X158910714Y-114605847D02*
X158941667Y-114574894D01*
X158941667Y-114574894D02*
X158910714Y-114543942D01*
X158910714Y-114543942D02*
X158910714Y-114605847D01*
X159220238Y-115193942D02*
X159220238Y-114543942D01*
X159220238Y-114543942D02*
X159467857Y-114543942D01*
X159467857Y-114543942D02*
X159529762Y-114574894D01*
X159529762Y-114574894D02*
X159560715Y-114605847D01*
X159560715Y-114605847D02*
X159591667Y-114667751D01*
X159591667Y-114667751D02*
X159591667Y-114760609D01*
X159591667Y-114760609D02*
X159560715Y-114822513D01*
X159560715Y-114822513D02*
X159529762Y-114853466D01*
X159529762Y-114853466D02*
X159467857Y-114884418D01*
X159467857Y-114884418D02*
X159220238Y-114884418D01*
X159963096Y-115193942D02*
X159901191Y-115162990D01*
X159901191Y-115162990D02*
X159870238Y-115132037D01*
X159870238Y-115132037D02*
X159839286Y-115070132D01*
X159839286Y-115070132D02*
X159839286Y-114884418D01*
X159839286Y-114884418D02*
X159870238Y-114822513D01*
X159870238Y-114822513D02*
X159901191Y-114791561D01*
X159901191Y-114791561D02*
X159963096Y-114760609D01*
X159963096Y-114760609D02*
X160055953Y-114760609D01*
X160055953Y-114760609D02*
X160117857Y-114791561D01*
X160117857Y-114791561D02*
X160148810Y-114822513D01*
X160148810Y-114822513D02*
X160179762Y-114884418D01*
X160179762Y-114884418D02*
X160179762Y-115070132D01*
X160179762Y-115070132D02*
X160148810Y-115132037D01*
X160148810Y-115132037D02*
X160117857Y-115162990D01*
X160117857Y-115162990D02*
X160055953Y-115193942D01*
X160055953Y-115193942D02*
X159963096Y-115193942D01*
X147276190Y-113462657D02*
X147923810Y-113462657D01*
X150827380Y-79136467D02*
X150827380Y-79824562D01*
X150827380Y-79824562D02*
X150867857Y-79905514D01*
X150867857Y-79905514D02*
X150908333Y-79945991D01*
X150908333Y-79945991D02*
X150989285Y-79986467D01*
X150989285Y-79986467D02*
X151151190Y-79986467D01*
X151151190Y-79986467D02*
X151232142Y-79945991D01*
X151232142Y-79945991D02*
X151272619Y-79905514D01*
X151272619Y-79905514D02*
X151313095Y-79824562D01*
X151313095Y-79824562D02*
X151313095Y-79136467D01*
X151677380Y-79945991D02*
X151798809Y-79986467D01*
X151798809Y-79986467D02*
X152001190Y-79986467D01*
X152001190Y-79986467D02*
X152082142Y-79945991D01*
X152082142Y-79945991D02*
X152122618Y-79905514D01*
X152122618Y-79905514D02*
X152163095Y-79824562D01*
X152163095Y-79824562D02*
X152163095Y-79743610D01*
X152163095Y-79743610D02*
X152122618Y-79662657D01*
X152122618Y-79662657D02*
X152082142Y-79622181D01*
X152082142Y-79622181D02*
X152001190Y-79581705D01*
X152001190Y-79581705D02*
X151839285Y-79541229D01*
X151839285Y-79541229D02*
X151758333Y-79500752D01*
X151758333Y-79500752D02*
X151717856Y-79460276D01*
X151717856Y-79460276D02*
X151677380Y-79379324D01*
X151677380Y-79379324D02*
X151677380Y-79298371D01*
X151677380Y-79298371D02*
X151717856Y-79217419D01*
X151717856Y-79217419D02*
X151758333Y-79176943D01*
X151758333Y-79176943D02*
X151839285Y-79136467D01*
X151839285Y-79136467D02*
X152041666Y-79136467D01*
X152041666Y-79136467D02*
X152163095Y-79176943D01*
X152810714Y-79541229D02*
X152932142Y-79581705D01*
X152932142Y-79581705D02*
X152972619Y-79622181D01*
X152972619Y-79622181D02*
X153013095Y-79703133D01*
X153013095Y-79703133D02*
X153013095Y-79824562D01*
X153013095Y-79824562D02*
X152972619Y-79905514D01*
X152972619Y-79905514D02*
X152932142Y-79945991D01*
X152932142Y-79945991D02*
X152851190Y-79986467D01*
X152851190Y-79986467D02*
X152527380Y-79986467D01*
X152527380Y-79986467D02*
X152527380Y-79136467D01*
X152527380Y-79136467D02*
X152810714Y-79136467D01*
X152810714Y-79136467D02*
X152891666Y-79176943D01*
X152891666Y-79176943D02*
X152932142Y-79217419D01*
X152932142Y-79217419D02*
X152972619Y-79298371D01*
X152972619Y-79298371D02*
X152972619Y-79379324D01*
X152972619Y-79379324D02*
X152932142Y-79460276D01*
X152932142Y-79460276D02*
X152891666Y-79500752D01*
X152891666Y-79500752D02*
X152810714Y-79541229D01*
X152810714Y-79541229D02*
X152527380Y-79541229D01*
X155776190Y-113462657D02*
X156423810Y-113462657D01*
X156100000Y-113786467D02*
X156100000Y-113138848D01*
D11*
X164551390Y-82703884D02*
X164551390Y-83037217D01*
X164027580Y-83180074D02*
X164027580Y-82703884D01*
X164027580Y-82703884D02*
X165027580Y-82703884D01*
X165027580Y-82703884D02*
X165027580Y-83180074D01*
X164075200Y-83561027D02*
X164027580Y-83703884D01*
X164027580Y-83703884D02*
X164027580Y-83941979D01*
X164027580Y-83941979D02*
X164075200Y-84037217D01*
X164075200Y-84037217D02*
X164122819Y-84084836D01*
X164122819Y-84084836D02*
X164218057Y-84132455D01*
X164218057Y-84132455D02*
X164313295Y-84132455D01*
X164313295Y-84132455D02*
X164408533Y-84084836D01*
X164408533Y-84084836D02*
X164456152Y-84037217D01*
X164456152Y-84037217D02*
X164503771Y-83941979D01*
X164503771Y-83941979D02*
X164551390Y-83751503D01*
X164551390Y-83751503D02*
X164599009Y-83656265D01*
X164599009Y-83656265D02*
X164646628Y-83608646D01*
X164646628Y-83608646D02*
X164741866Y-83561027D01*
X164741866Y-83561027D02*
X164837104Y-83561027D01*
X164837104Y-83561027D02*
X164932342Y-83608646D01*
X164932342Y-83608646D02*
X164979961Y-83656265D01*
X164979961Y-83656265D02*
X165027580Y-83751503D01*
X165027580Y-83751503D02*
X165027580Y-83989598D01*
X165027580Y-83989598D02*
X164979961Y-84132455D01*
X164027580Y-84561027D02*
X165027580Y-84561027D01*
X165027580Y-84561027D02*
X165027580Y-84941979D01*
X165027580Y-84941979D02*
X164979961Y-85037217D01*
X164979961Y-85037217D02*
X164932342Y-85084836D01*
X164932342Y-85084836D02*
X164837104Y-85132455D01*
X164837104Y-85132455D02*
X164694247Y-85132455D01*
X164694247Y-85132455D02*
X164599009Y-85084836D01*
X164599009Y-85084836D02*
X164551390Y-85037217D01*
X164551390Y-85037217D02*
X164503771Y-84941979D01*
X164503771Y-84941979D02*
X164503771Y-84561027D01*
X165027580Y-85465789D02*
X165027580Y-86084836D01*
X165027580Y-86084836D02*
X164646628Y-85751503D01*
X164646628Y-85751503D02*
X164646628Y-85894360D01*
X164646628Y-85894360D02*
X164599009Y-85989598D01*
X164599009Y-85989598D02*
X164551390Y-86037217D01*
X164551390Y-86037217D02*
X164456152Y-86084836D01*
X164456152Y-86084836D02*
X164218057Y-86084836D01*
X164218057Y-86084836D02*
X164122819Y-86037217D01*
X164122819Y-86037217D02*
X164075200Y-85989598D01*
X164075200Y-85989598D02*
X164027580Y-85894360D01*
X164027580Y-85894360D02*
X164027580Y-85608646D01*
X164027580Y-85608646D02*
X164075200Y-85513408D01*
X164075200Y-85513408D02*
X164122819Y-85465789D01*
X164932342Y-86465789D02*
X164979961Y-86513408D01*
X164979961Y-86513408D02*
X165027580Y-86608646D01*
X165027580Y-86608646D02*
X165027580Y-86846741D01*
X165027580Y-86846741D02*
X164979961Y-86941979D01*
X164979961Y-86941979D02*
X164932342Y-86989598D01*
X164932342Y-86989598D02*
X164837104Y-87037217D01*
X164837104Y-87037217D02*
X164741866Y-87037217D01*
X164741866Y-87037217D02*
X164599009Y-86989598D01*
X164599009Y-86989598D02*
X164027580Y-86418170D01*
X164027580Y-86418170D02*
X164027580Y-87037217D01*
X164075200Y-87418170D02*
X164027580Y-87561027D01*
X164027580Y-87561027D02*
X164027580Y-87799122D01*
X164027580Y-87799122D02*
X164075200Y-87894360D01*
X164075200Y-87894360D02*
X164122819Y-87941979D01*
X164122819Y-87941979D02*
X164218057Y-87989598D01*
X164218057Y-87989598D02*
X164313295Y-87989598D01*
X164313295Y-87989598D02*
X164408533Y-87941979D01*
X164408533Y-87941979D02*
X164456152Y-87894360D01*
X164456152Y-87894360D02*
X164503771Y-87799122D01*
X164503771Y-87799122D02*
X164551390Y-87608646D01*
X164551390Y-87608646D02*
X164599009Y-87513408D01*
X164599009Y-87513408D02*
X164646628Y-87465789D01*
X164646628Y-87465789D02*
X164741866Y-87418170D01*
X164741866Y-87418170D02*
X164837104Y-87418170D01*
X164837104Y-87418170D02*
X164932342Y-87465789D01*
X164932342Y-87465789D02*
X164979961Y-87513408D01*
X164979961Y-87513408D02*
X165027580Y-87608646D01*
X165027580Y-87608646D02*
X165027580Y-87846741D01*
X165027580Y-87846741D02*
X164979961Y-87989598D01*
X165027580Y-88322932D02*
X165027580Y-88941979D01*
X165027580Y-88941979D02*
X164646628Y-88608646D01*
X164646628Y-88608646D02*
X164646628Y-88751503D01*
X164646628Y-88751503D02*
X164599009Y-88846741D01*
X164599009Y-88846741D02*
X164551390Y-88894360D01*
X164551390Y-88894360D02*
X164456152Y-88941979D01*
X164456152Y-88941979D02*
X164218057Y-88941979D01*
X164218057Y-88941979D02*
X164122819Y-88894360D01*
X164122819Y-88894360D02*
X164075200Y-88846741D01*
X164075200Y-88846741D02*
X164027580Y-88751503D01*
X164027580Y-88751503D02*
X164027580Y-88465789D01*
X164027580Y-88465789D02*
X164075200Y-88370551D01*
X164075200Y-88370551D02*
X164122819Y-88322932D01*
X164408533Y-90132456D02*
X164408533Y-90894361D01*
X164551390Y-92465789D02*
X164503771Y-92608646D01*
X164503771Y-92608646D02*
X164456152Y-92656265D01*
X164456152Y-92656265D02*
X164360914Y-92703884D01*
X164360914Y-92703884D02*
X164218057Y-92703884D01*
X164218057Y-92703884D02*
X164122819Y-92656265D01*
X164122819Y-92656265D02*
X164075200Y-92608646D01*
X164075200Y-92608646D02*
X164027580Y-92513408D01*
X164027580Y-92513408D02*
X164027580Y-92132456D01*
X164027580Y-92132456D02*
X165027580Y-92132456D01*
X165027580Y-92132456D02*
X165027580Y-92465789D01*
X165027580Y-92465789D02*
X164979961Y-92561027D01*
X164979961Y-92561027D02*
X164932342Y-92608646D01*
X164932342Y-92608646D02*
X164837104Y-92656265D01*
X164837104Y-92656265D02*
X164741866Y-92656265D01*
X164741866Y-92656265D02*
X164646628Y-92608646D01*
X164646628Y-92608646D02*
X164599009Y-92561027D01*
X164599009Y-92561027D02*
X164551390Y-92465789D01*
X164551390Y-92465789D02*
X164551390Y-92132456D01*
X164027580Y-93132456D02*
X165027580Y-93132456D01*
X165027580Y-93132456D02*
X164313295Y-93465789D01*
X164313295Y-93465789D02*
X165027580Y-93799122D01*
X165027580Y-93799122D02*
X164027580Y-93799122D01*
X164694247Y-94703884D02*
X164027580Y-94703884D01*
X165075200Y-94465789D02*
X164360914Y-94227694D01*
X164360914Y-94227694D02*
X164360914Y-94846741D01*
X165027580Y-95418170D02*
X165027580Y-95513408D01*
X165027580Y-95513408D02*
X164979961Y-95608646D01*
X164979961Y-95608646D02*
X164932342Y-95656265D01*
X164932342Y-95656265D02*
X164837104Y-95703884D01*
X164837104Y-95703884D02*
X164646628Y-95751503D01*
X164646628Y-95751503D02*
X164408533Y-95751503D01*
X164408533Y-95751503D02*
X164218057Y-95703884D01*
X164218057Y-95703884D02*
X164122819Y-95656265D01*
X164122819Y-95656265D02*
X164075200Y-95608646D01*
X164075200Y-95608646D02*
X164027580Y-95513408D01*
X164027580Y-95513408D02*
X164027580Y-95418170D01*
X164027580Y-95418170D02*
X164075200Y-95322932D01*
X164075200Y-95322932D02*
X164122819Y-95275313D01*
X164122819Y-95275313D02*
X164218057Y-95227694D01*
X164218057Y-95227694D02*
X164408533Y-95180075D01*
X164408533Y-95180075D02*
X164646628Y-95180075D01*
X164646628Y-95180075D02*
X164837104Y-95227694D01*
X164837104Y-95227694D02*
X164932342Y-95275313D01*
X164932342Y-95275313D02*
X164979961Y-95322932D01*
X164979961Y-95322932D02*
X165027580Y-95418170D01*
X165027580Y-96370551D02*
X165027580Y-96465789D01*
X165027580Y-96465789D02*
X164979961Y-96561027D01*
X164979961Y-96561027D02*
X164932342Y-96608646D01*
X164932342Y-96608646D02*
X164837104Y-96656265D01*
X164837104Y-96656265D02*
X164646628Y-96703884D01*
X164646628Y-96703884D02*
X164408533Y-96703884D01*
X164408533Y-96703884D02*
X164218057Y-96656265D01*
X164218057Y-96656265D02*
X164122819Y-96608646D01*
X164122819Y-96608646D02*
X164075200Y-96561027D01*
X164075200Y-96561027D02*
X164027580Y-96465789D01*
X164027580Y-96465789D02*
X164027580Y-96370551D01*
X164027580Y-96370551D02*
X164075200Y-96275313D01*
X164075200Y-96275313D02*
X164122819Y-96227694D01*
X164122819Y-96227694D02*
X164218057Y-96180075D01*
X164218057Y-96180075D02*
X164408533Y-96132456D01*
X164408533Y-96132456D02*
X164646628Y-96132456D01*
X164646628Y-96132456D02*
X164837104Y-96180075D01*
X164837104Y-96180075D02*
X164932342Y-96227694D01*
X164932342Y-96227694D02*
X164979961Y-96275313D01*
X164979961Y-96275313D02*
X165027580Y-96370551D01*
D12*
X143204999Y-102740724D02*
X142954999Y-102383581D01*
X142776428Y-102740724D02*
X142776428Y-101990724D01*
X142776428Y-101990724D02*
X143062142Y-101990724D01*
X143062142Y-101990724D02*
X143133571Y-102026438D01*
X143133571Y-102026438D02*
X143169285Y-102062152D01*
X143169285Y-102062152D02*
X143204999Y-102133581D01*
X143204999Y-102133581D02*
X143204999Y-102240724D01*
X143204999Y-102240724D02*
X143169285Y-102312152D01*
X143169285Y-102312152D02*
X143133571Y-102347867D01*
X143133571Y-102347867D02*
X143062142Y-102383581D01*
X143062142Y-102383581D02*
X142776428Y-102383581D01*
X143919285Y-102740724D02*
X143490714Y-102740724D01*
X143704999Y-102740724D02*
X143704999Y-101990724D01*
X143704999Y-101990724D02*
X143633571Y-102097867D01*
X143633571Y-102097867D02*
X143562142Y-102169295D01*
X143562142Y-102169295D02*
X143490714Y-102205010D01*
X137874999Y-102740724D02*
X137624999Y-102383581D01*
X137446428Y-102740724D02*
X137446428Y-101990724D01*
X137446428Y-101990724D02*
X137732142Y-101990724D01*
X137732142Y-101990724D02*
X137803571Y-102026438D01*
X137803571Y-102026438D02*
X137839285Y-102062152D01*
X137839285Y-102062152D02*
X137874999Y-102133581D01*
X137874999Y-102133581D02*
X137874999Y-102240724D01*
X137874999Y-102240724D02*
X137839285Y-102312152D01*
X137839285Y-102312152D02*
X137803571Y-102347867D01*
X137803571Y-102347867D02*
X137732142Y-102383581D01*
X137732142Y-102383581D02*
X137446428Y-102383581D01*
X138160714Y-102062152D02*
X138196428Y-102026438D01*
X138196428Y-102026438D02*
X138267857Y-101990724D01*
X138267857Y-101990724D02*
X138446428Y-101990724D01*
X138446428Y-101990724D02*
X138517857Y-102026438D01*
X138517857Y-102026438D02*
X138553571Y-102062152D01*
X138553571Y-102062152D02*
X138589285Y-102133581D01*
X138589285Y-102133581D02*
X138589285Y-102205010D01*
X138589285Y-102205010D02*
X138553571Y-102312152D01*
X138553571Y-102312152D02*
X138124999Y-102740724D01*
X138124999Y-102740724D02*
X138589285Y-102740724D01*
X161774999Y-108739295D02*
X161739285Y-108775010D01*
X161739285Y-108775010D02*
X161632142Y-108810724D01*
X161632142Y-108810724D02*
X161560714Y-108810724D01*
X161560714Y-108810724D02*
X161453571Y-108775010D01*
X161453571Y-108775010D02*
X161382142Y-108703581D01*
X161382142Y-108703581D02*
X161346428Y-108632152D01*
X161346428Y-108632152D02*
X161310714Y-108489295D01*
X161310714Y-108489295D02*
X161310714Y-108382152D01*
X161310714Y-108382152D02*
X161346428Y-108239295D01*
X161346428Y-108239295D02*
X161382142Y-108167867D01*
X161382142Y-108167867D02*
X161453571Y-108096438D01*
X161453571Y-108096438D02*
X161560714Y-108060724D01*
X161560714Y-108060724D02*
X161632142Y-108060724D01*
X161632142Y-108060724D02*
X161739285Y-108096438D01*
X161739285Y-108096438D02*
X161774999Y-108132152D01*
X162417857Y-108310724D02*
X162417857Y-108810724D01*
X162239285Y-108025010D02*
X162060714Y-108560724D01*
X162060714Y-108560724D02*
X162524999Y-108560724D01*
X150204999Y-108169295D02*
X150169285Y-108205010D01*
X150169285Y-108205010D02*
X150062142Y-108240724D01*
X150062142Y-108240724D02*
X149990714Y-108240724D01*
X149990714Y-108240724D02*
X149883571Y-108205010D01*
X149883571Y-108205010D02*
X149812142Y-108133581D01*
X149812142Y-108133581D02*
X149776428Y-108062152D01*
X149776428Y-108062152D02*
X149740714Y-107919295D01*
X149740714Y-107919295D02*
X149740714Y-107812152D01*
X149740714Y-107812152D02*
X149776428Y-107669295D01*
X149776428Y-107669295D02*
X149812142Y-107597867D01*
X149812142Y-107597867D02*
X149883571Y-107526438D01*
X149883571Y-107526438D02*
X149990714Y-107490724D01*
X149990714Y-107490724D02*
X150062142Y-107490724D01*
X150062142Y-107490724D02*
X150169285Y-107526438D01*
X150169285Y-107526438D02*
X150204999Y-107562152D01*
X150490714Y-107562152D02*
X150526428Y-107526438D01*
X150526428Y-107526438D02*
X150597857Y-107490724D01*
X150597857Y-107490724D02*
X150776428Y-107490724D01*
X150776428Y-107490724D02*
X150847857Y-107526438D01*
X150847857Y-107526438D02*
X150883571Y-107562152D01*
X150883571Y-107562152D02*
X150919285Y-107633581D01*
X150919285Y-107633581D02*
X150919285Y-107705010D01*
X150919285Y-107705010D02*
X150883571Y-107812152D01*
X150883571Y-107812152D02*
X150454999Y-108240724D01*
X150454999Y-108240724D02*
X150919285Y-108240724D01*
X154204999Y-108669295D02*
X154169285Y-108705010D01*
X154169285Y-108705010D02*
X154062142Y-108740724D01*
X154062142Y-108740724D02*
X153990714Y-108740724D01*
X153990714Y-108740724D02*
X153883571Y-108705010D01*
X153883571Y-108705010D02*
X153812142Y-108633581D01*
X153812142Y-108633581D02*
X153776428Y-108562152D01*
X153776428Y-108562152D02*
X153740714Y-108419295D01*
X153740714Y-108419295D02*
X153740714Y-108312152D01*
X153740714Y-108312152D02*
X153776428Y-108169295D01*
X153776428Y-108169295D02*
X153812142Y-108097867D01*
X153812142Y-108097867D02*
X153883571Y-108026438D01*
X153883571Y-108026438D02*
X153990714Y-107990724D01*
X153990714Y-107990724D02*
X154062142Y-107990724D01*
X154062142Y-107990724D02*
X154169285Y-108026438D01*
X154169285Y-108026438D02*
X154204999Y-108062152D01*
X154454999Y-107990724D02*
X154919285Y-107990724D01*
X154919285Y-107990724D02*
X154669285Y-108276438D01*
X154669285Y-108276438D02*
X154776428Y-108276438D01*
X154776428Y-108276438D02*
X154847857Y-108312152D01*
X154847857Y-108312152D02*
X154883571Y-108347867D01*
X154883571Y-108347867D02*
X154919285Y-108419295D01*
X154919285Y-108419295D02*
X154919285Y-108597867D01*
X154919285Y-108597867D02*
X154883571Y-108669295D01*
X154883571Y-108669295D02*
X154847857Y-108705010D01*
X154847857Y-108705010D02*
X154776428Y-108740724D01*
X154776428Y-108740724D02*
X154562142Y-108740724D01*
X154562142Y-108740724D02*
X154490714Y-108705010D01*
X154490714Y-108705010D02*
X154454999Y-108669295D01*
X160204999Y-111740724D02*
X159954999Y-111383581D01*
X159776428Y-111740724D02*
X159776428Y-110990724D01*
X159776428Y-110990724D02*
X160062142Y-110990724D01*
X160062142Y-110990724D02*
X160133571Y-111026438D01*
X160133571Y-111026438D02*
X160169285Y-111062152D01*
X160169285Y-111062152D02*
X160204999Y-111133581D01*
X160204999Y-111133581D02*
X160204999Y-111240724D01*
X160204999Y-111240724D02*
X160169285Y-111312152D01*
X160169285Y-111312152D02*
X160133571Y-111347867D01*
X160133571Y-111347867D02*
X160062142Y-111383581D01*
X160062142Y-111383581D02*
X159776428Y-111383581D01*
X160847857Y-111240724D02*
X160847857Y-111740724D01*
X160669285Y-110955010D02*
X160490714Y-111490724D01*
X160490714Y-111490724D02*
X160954999Y-111490724D01*
X160204999Y-108740724D02*
X159954999Y-108383581D01*
X159776428Y-108740724D02*
X159776428Y-107990724D01*
X159776428Y-107990724D02*
X160062142Y-107990724D01*
X160062142Y-107990724D02*
X160133571Y-108026438D01*
X160133571Y-108026438D02*
X160169285Y-108062152D01*
X160169285Y-108062152D02*
X160204999Y-108133581D01*
X160204999Y-108133581D02*
X160204999Y-108240724D01*
X160204999Y-108240724D02*
X160169285Y-108312152D01*
X160169285Y-108312152D02*
X160133571Y-108347867D01*
X160133571Y-108347867D02*
X160062142Y-108383581D01*
X160062142Y-108383581D02*
X159776428Y-108383581D01*
X160454999Y-107990724D02*
X160919285Y-107990724D01*
X160919285Y-107990724D02*
X160669285Y-108276438D01*
X160669285Y-108276438D02*
X160776428Y-108276438D01*
X160776428Y-108276438D02*
X160847857Y-108312152D01*
X160847857Y-108312152D02*
X160883571Y-108347867D01*
X160883571Y-108347867D02*
X160919285Y-108419295D01*
X160919285Y-108419295D02*
X160919285Y-108597867D01*
X160919285Y-108597867D02*
X160883571Y-108669295D01*
X160883571Y-108669295D02*
X160847857Y-108705010D01*
X160847857Y-108705010D02*
X160776428Y-108740724D01*
X160776428Y-108740724D02*
X160562142Y-108740724D01*
X160562142Y-108740724D02*
X160490714Y-108705010D01*
X160490714Y-108705010D02*
X160454999Y-108669295D01*
X142704999Y-108169295D02*
X142669285Y-108205010D01*
X142669285Y-108205010D02*
X142562142Y-108240724D01*
X142562142Y-108240724D02*
X142490714Y-108240724D01*
X142490714Y-108240724D02*
X142383571Y-108205010D01*
X142383571Y-108205010D02*
X142312142Y-108133581D01*
X142312142Y-108133581D02*
X142276428Y-108062152D01*
X142276428Y-108062152D02*
X142240714Y-107919295D01*
X142240714Y-107919295D02*
X142240714Y-107812152D01*
X142240714Y-107812152D02*
X142276428Y-107669295D01*
X142276428Y-107669295D02*
X142312142Y-107597867D01*
X142312142Y-107597867D02*
X142383571Y-107526438D01*
X142383571Y-107526438D02*
X142490714Y-107490724D01*
X142490714Y-107490724D02*
X142562142Y-107490724D01*
X142562142Y-107490724D02*
X142669285Y-107526438D01*
X142669285Y-107526438D02*
X142704999Y-107562152D01*
X143419285Y-108240724D02*
X142990714Y-108240724D01*
X143204999Y-108240724D02*
X143204999Y-107490724D01*
X143204999Y-107490724D02*
X143133571Y-107597867D01*
X143133571Y-107597867D02*
X143062142Y-107669295D01*
X143062142Y-107669295D02*
X142990714Y-107705010D01*
X151328571Y-83690724D02*
X151328571Y-84297867D01*
X151328571Y-84297867D02*
X151364285Y-84369295D01*
X151364285Y-84369295D02*
X151400000Y-84405010D01*
X151400000Y-84405010D02*
X151471428Y-84440724D01*
X151471428Y-84440724D02*
X151614285Y-84440724D01*
X151614285Y-84440724D02*
X151685714Y-84405010D01*
X151685714Y-84405010D02*
X151721428Y-84369295D01*
X151721428Y-84369295D02*
X151757142Y-84297867D01*
X151757142Y-84297867D02*
X151757142Y-83690724D01*
X152507142Y-84440724D02*
X152078571Y-84440724D01*
X152292856Y-84440724D02*
X152292856Y-83690724D01*
X152292856Y-83690724D02*
X152221428Y-83797867D01*
X152221428Y-83797867D02*
X152149999Y-83869295D01*
X152149999Y-83869295D02*
X152078571Y-83905010D01*
X144328571Y-103990724D02*
X144328571Y-104597867D01*
X144328571Y-104597867D02*
X144364285Y-104669295D01*
X144364285Y-104669295D02*
X144400000Y-104705010D01*
X144400000Y-104705010D02*
X144471428Y-104740724D01*
X144471428Y-104740724D02*
X144614285Y-104740724D01*
X144614285Y-104740724D02*
X144685714Y-104705010D01*
X144685714Y-104705010D02*
X144721428Y-104669295D01*
X144721428Y-104669295D02*
X144757142Y-104597867D01*
X144757142Y-104597867D02*
X144757142Y-103990724D01*
X145078571Y-104062152D02*
X145114285Y-104026438D01*
X145114285Y-104026438D02*
X145185714Y-103990724D01*
X145185714Y-103990724D02*
X145364285Y-103990724D01*
X145364285Y-103990724D02*
X145435714Y-104026438D01*
X145435714Y-104026438D02*
X145471428Y-104062152D01*
X145471428Y-104062152D02*
X145507142Y-104133581D01*
X145507142Y-104133581D02*
X145507142Y-104205010D01*
X145507142Y-104205010D02*
X145471428Y-104312152D01*
X145471428Y-104312152D02*
X145042856Y-104740724D01*
X145042856Y-104740724D02*
X145507142Y-104740724D01*
X151650000Y-110440724D02*
X151650000Y-110976438D01*
X151650000Y-110976438D02*
X151614285Y-111083581D01*
X151614285Y-111083581D02*
X151542857Y-111155010D01*
X151542857Y-111155010D02*
X151435714Y-111190724D01*
X151435714Y-111190724D02*
X151364285Y-111190724D01*
X152400000Y-111190724D02*
X151971429Y-111190724D01*
X152185714Y-111190724D02*
X152185714Y-110440724D01*
X152185714Y-110440724D02*
X152114286Y-110547867D01*
X152114286Y-110547867D02*
X152042857Y-110619295D01*
X152042857Y-110619295D02*
X151971429Y-110655010D01*
%TO.C,R1*%
X141377500Y-102162742D02*
X141377500Y-102637258D01*
X142422500Y-102162742D02*
X142422500Y-102637258D01*
%TO.C,R2*%
X138877500Y-102162742D02*
X138877500Y-102637258D01*
X139922500Y-102162742D02*
X139922500Y-102637258D01*
%TO.C,C4*%
X161759420Y-109390000D02*
X162040580Y-109390000D01*
X161759420Y-110410000D02*
X162040580Y-110410000D01*
%TO.C,C2*%
X148390000Y-107759420D02*
X148390000Y-108040580D01*
X149410000Y-107759420D02*
X149410000Y-108040580D01*
%TO.C,C3*%
X152390000Y-108259420D02*
X152390000Y-108540580D01*
X153410000Y-108259420D02*
X153410000Y-108540580D01*
%TO.C,R4*%
X158377500Y-111162742D02*
X158377500Y-111637258D01*
X159422500Y-111162742D02*
X159422500Y-111637258D01*
%TO.C,R3*%
X158377500Y-108162742D02*
X158377500Y-108637258D01*
X159422500Y-108162742D02*
X159422500Y-108637258D01*
%TO.C,C1*%
X140890000Y-107759420D02*
X140890000Y-108040580D01*
X141910000Y-107759420D02*
X141910000Y-108040580D01*
%TO.C,U1*%
X142900000Y-96900000D02*
X142900000Y-98600000D01*
X142900000Y-98600000D02*
X160900000Y-98600000D01*
X149900000Y-82900000D02*
X151900000Y-80900000D01*
X151900000Y-80900000D02*
X153900000Y-82900000D01*
X160900000Y-98600000D02*
X160900000Y-96900000D01*
%TO.C,U2*%
X143450000Y-105200000D02*
X144100000Y-105200000D01*
X143450000Y-105800000D02*
X143450000Y-105200000D01*
%TO.C,J1*%
X148840000Y-111940000D02*
X148840000Y-119760000D01*
X148840000Y-113540000D02*
X149760000Y-113540000D01*
X148840000Y-119760000D02*
X154960000Y-119760000D01*
X149760000Y-111940000D02*
X148840000Y-111940000D01*
X149760000Y-113540000D02*
X149760000Y-111940000D01*
X150040000Y-113540000D02*
X149760000Y-113540000D01*
X150040000Y-113540000D02*
X150040000Y-112325000D01*
X150100000Y-117500000D02*
X150100000Y-119760000D01*
X150600000Y-117500000D02*
X150600000Y-119760000D01*
X151400000Y-115400000D02*
X152400000Y-115400000D01*
X151400000Y-119760000D02*
X151400000Y-115400000D01*
X152400000Y-115400000D02*
X152400000Y-119760000D01*
X154040000Y-111940000D02*
X154040000Y-113540000D01*
X154040000Y-113540000D02*
X153760000Y-113540000D01*
X154960000Y-111940000D02*
X154040000Y-111940000D01*
X154960000Y-113540000D02*
X154040000Y-113540000D01*
X154960000Y-119760000D02*
X154960000Y-111940000D01*
X149600000Y-115900000D02*
X150600000Y-115900000D01*
X150600000Y-117500000D01*
X149600000Y-117500000D01*
X149600000Y-115900000D01*
X153200000Y-115900000D02*
X154200000Y-115900000D01*
X154200000Y-117500000D01*
X153200000Y-117500000D01*
X153200000Y-115900000D01*
%TD*%
M02*
