M48
; DRILL file KiCad 10.0.6 date 2026-10-05T16:38:51
; FORMAT={-:-/ absolute / metric / decimal}
; #@! TF.CreationDate,2026-10-05T16:38:51-07:00
; #@! TF.GenerationSoftware,Kicad,Pcbnew,10.0.6
; #@! TF.FileFunction,Plated,1,2,PTH
FMAT,2
METRIC
; #@! TA.AperFunction,Plated,PTH,ViaDrill
T1C0.300
; #@! TA.AperFunction,Plated,PTH,ComponentDrill
T2C0.750
%
G90
G05
T1
X139.4Y-100.55
X139.4Y-105.0
X140.4Y-99.4
X140.4Y-107.125
X141.4Y-82.82
X141.4Y-109.475
X141.9Y-100.6
X142.5Y-105.0
X142.9Y-103.225
X142.9Y-106.05
X145.85Y-92.98
X146.9Y-106.3
X148.9Y-109.475
X149.9Y-107.125
X150.119Y-91.2
X152.9Y-106.5
X152.9Y-109.975
X153.9Y-93.432
X157.9Y-109.225
X158.7Y-101.4
X158.9Y-113.025
X162.3Y-82.82
X162.3Y-85.36
X162.675Y-110.7
T2
X150.9Y-113.4
X152.9Y-113.4
M30
