%TF.GenerationSoftware,KiCad,Pcbnew,10.0.6*%
%TF.CreationDate,2026-10-05T16:39:14-07:00*%
%TF.ProjectId,xiao-bma400,7869616f-2d62-46d6-9134-30302e6b6963,D*%
%TF.SameCoordinates,Original*%
%TF.FileFunction,Soldermask,Top*%
%TF.FilePolarity,Negative*%
%FSLAX46Y46*%
G04 Gerber Fmt 4.6, Leading zero omitted, Abs format (unit mm)*
G04 Created by KiCad (PCBNEW 10.0.6) date 2026-10-05 16:39:14*
%MOMM*%
%LPD*%
G01*
G04 APERTURE LIST*
G04 Aperture macros list*
%AMRoundRect*
0 Rectangle with rounded corners*
0 $1 Rounding radius*
0 $2 $3 $4 $5 $6 $7 $8 $9 X,Y pos of 4 corners*
0 Add a 4 corners polygon primitive as box body*
4,1,4,$2,$3,$4,$5,$6,$7,$8,$9,$2,$3,0*
0 Add four circle primitives for the rounded corners*
1,1,$1+$1,$2,$3*
1,1,$1+$1,$4,$5*
1,1,$1+$1,$6,$7*
1,1,$1+$1,$8,$9*
0 Add four rect primitives between the rounded corners*
20,1,$1+$1,$2,$3,$4,$5,0*
20,1,$1+$1,$4,$5,$6,$7,0*
20,1,$1+$1,$6,$7,$8,$9,0*
20,1,$1+$1,$8,$9,$2,$3,0*%
G04 Aperture macros list end*
%ADD10RoundRect,0.200000X-0.275000X0.200000X-0.275000X-0.200000X0.275000X-0.200000X0.275000X0.200000X0*%
%ADD11C,2.200000*%
%ADD12RoundRect,0.225000X-0.225000X-0.250000X0.225000X-0.250000X0.225000X0.250000X-0.225000X0.250000X0*%
%ADD13RoundRect,0.225000X-0.250000X0.225000X-0.250000X-0.225000X0.250000X-0.225000X0.250000X0.225000X0*%
%ADD14RoundRect,0.550800X-0.875000X-0.500000X0.875000X-0.500000X0.875000X0.500000X-0.875000X0.500000X0*%
%ADD15RoundRect,0.275000X-0.275000X-0.975000X0.275000X-0.975000X0.275000X0.975000X-0.275000X0.975000X0*%
%ADD16RoundRect,0.050000X-0.175000X-0.150000X0.175000X-0.150000X0.175000X0.150000X-0.175000X0.150000X0*%
%ADD17RoundRect,0.050000X-0.150000X-0.175000X0.150000X-0.175000X0.150000X0.175000X-0.150000X0.175000X0*%
%ADD18RoundRect,0.250000X-0.350000X-0.625000X0.350000X-0.625000X0.350000X0.625000X-0.350000X0.625000X0*%
%ADD19O,1.200000X1.750000*%
G04 APERTURE END LIST*
D10*
%TO.C,R1*%
X141900000Y-101575000D03*
X141900000Y-103225000D03*
%TD*%
D11*
%TO.C,H1*%
X139900000Y-117400000D03*
%TD*%
D10*
%TO.C,R2*%
X139400000Y-101575000D03*
X139400000Y-103225000D03*
%TD*%
D12*
%TO.C,C4*%
X161125000Y-109900000D03*
X162675000Y-109900000D03*
%TD*%
D13*
%TO.C,C2*%
X148900000Y-107125000D03*
X148900000Y-108675000D03*
%TD*%
%TO.C,C3*%
X152900000Y-107625000D03*
X152900000Y-109175000D03*
%TD*%
D10*
%TO.C,R4*%
X158900000Y-110575000D03*
X158900000Y-112225000D03*
%TD*%
%TO.C,R3*%
X158900000Y-107575000D03*
X158900000Y-109225000D03*
%TD*%
D13*
%TO.C,C1*%
X141400000Y-107125000D03*
X141400000Y-108675000D03*
%TD*%
D14*
%TO.C,U1*%
X143845000Y-80280000D03*
X143845000Y-82820000D03*
X143845000Y-85360000D03*
X143845000Y-87900000D03*
X143845000Y-90440000D03*
X143845000Y-92980000D03*
X143845000Y-95520000D03*
X160010000Y-95520000D03*
X160010000Y-92980000D03*
X160010000Y-90440000D03*
X160010000Y-87900000D03*
X160010000Y-85360000D03*
X160010000Y-82820000D03*
X160010000Y-80280000D03*
D15*
X150118600Y-93431700D03*
X152658600Y-93431700D03*
%TD*%
D16*
%TO.C,U2*%
X144125000Y-105650000D03*
X144125000Y-106150000D03*
X144125000Y-106650000D03*
X144125000Y-107150000D03*
D17*
X144650000Y-107175000D03*
X145150000Y-107175000D03*
D16*
X145675000Y-107150000D03*
X145675000Y-106650000D03*
X145675000Y-106150000D03*
X145675000Y-105650000D03*
D17*
X145150000Y-105625000D03*
X144650000Y-105625000D03*
%TD*%
D18*
%TO.C,J1*%
X150900000Y-113400000D03*
D19*
X152900000Y-113400000D03*
%TD*%
D11*
%TO.C,H2*%
X163900000Y-117400000D03*
%TD*%
M02*
