%TF.GenerationSoftware,KiCad,Pcbnew,10.0.6*%
%TF.CreationDate,2026-10-05T16:39:14-07:00*%
%TF.ProjectId,xiao-bma400,7869616f-2d62-46d6-9134-30302e6b6963,D*%
%TF.SameCoordinates,Original*%
%TF.FileFunction,Copper,L1,Top*%
%TF.FilePolarity,Positive*%
%FSLAX46Y46*%
G04 Gerber Fmt 4.6, Leading zero omitted, Abs format (unit mm)*
G04 Created by KiCad (PCBNEW 10.0.6) date 2026-10-05 16:39:14*
%MOMM*%
%LPD*%
G01*
G04 APERTURE LIST*
G04 Aperture macros list*
%AMRoundRect*
0 Rectangle with rounded corners*
0 $1 Rounding radius*
0 $2 $3 $4 $5 $6 $7 $8 $9 X,Y pos of 4 corners*
0 Add a 4 corners polygon primitive as box body*
4,1,4,$2,$3,$4,$5,$6,$7,$8,$9,$2,$3,0*
0 Add four circle primitives for the rounded corners*
1,1,$1+$1,$2,$3*
1,1,$1+$1,$4,$5*
1,1,$1+$1,$6,$7*
1,1,$1+$1,$8,$9*
0 Add four rect primitives between the rounded corners*
20,1,$1+$1,$2,$3,$4,$5,0*
20,1,$1+$1,$4,$5,$6,$7,0*
20,1,$1+$1,$6,$7,$8,$9,0*
20,1,$1+$1,$8,$9,$2,$3,0*%
G04 Aperture macros list end*
%TA.AperFunction,SMDPad,CuDef*%
%ADD10RoundRect,0.200000X-0.275000X0.200000X-0.275000X-0.200000X0.275000X-0.200000X0.275000X0.200000X0*%
%TD*%
%TA.AperFunction,SMDPad,CuDef*%
%ADD11RoundRect,0.225000X-0.225000X-0.250000X0.225000X-0.250000X0.225000X0.250000X-0.225000X0.250000X0*%
%TD*%
%TA.AperFunction,SMDPad,CuDef*%
%ADD12RoundRect,0.225000X-0.250000X0.225000X-0.250000X-0.225000X0.250000X-0.225000X0.250000X0.225000X0*%
%TD*%
%TA.AperFunction,SMDPad,CuDef*%
%ADD13RoundRect,0.500000X-0.875000X-0.500000X0.875000X-0.500000X0.875000X0.500000X-0.875000X0.500000X0*%
%TD*%
%TA.AperFunction,SMDPad,CuDef*%
%ADD14RoundRect,0.275000X-0.275000X-0.975000X0.275000X-0.975000X0.275000X0.975000X-0.275000X0.975000X0*%
%TD*%
%TA.AperFunction,SMDPad,CuDef*%
%ADD15R,0.350000X0.300000*%
%TD*%
%TA.AperFunction,SMDPad,CuDef*%
%ADD16R,0.300000X0.350000*%
%TD*%
%TA.AperFunction,ComponentPad*%
%ADD17RoundRect,0.250000X-0.350000X-0.625000X0.350000X-0.625000X0.350000X0.625000X-0.350000X0.625000X0*%
%TD*%
%TA.AperFunction,ComponentPad*%
%ADD18O,1.200000X1.750000*%
%TD*%
%TA.AperFunction,ViaPad*%
%ADD19C,0.600000*%
%TD*%
%TA.AperFunction,Conductor*%
%ADD20C,0.150000*%
%TD*%
%TA.AperFunction,Conductor*%
%ADD21C,0.250000*%
%TD*%
%TA.AperFunction,Conductor*%
%ADD22C,0.400000*%
%TD*%
%TA.AperFunction,Conductor*%
%ADD23C,0.600000*%
%TD*%
%TA.AperFunction,Conductor*%
%ADD24C,0.300000*%
%TD*%
G04 APERTURE END LIST*
D10*
%TO.P,R1,1*%
%TO.N,/+3V3*%
X141900000Y-101575000D03*
%TO.P,R1,2*%
%TO.N,/I2C_SDA*%
X141900000Y-103225000D03*
%TD*%
%TO.P,R2,1*%
%TO.N,/+3V3*%
X139400000Y-101575000D03*
%TO.P,R2,2*%
%TO.N,/I2C_SCL*%
X139400000Y-103225000D03*
%TD*%
D11*
%TO.P,C4,1*%
%TO.N,/BAT_SENSE*%
X161125000Y-109900000D03*
%TO.P,C4,2*%
%TO.N,/GND*%
X162675000Y-109900000D03*
%TD*%
D12*
%TO.P,C2,1*%
%TO.N,/+3V3*%
X148900000Y-107125000D03*
%TO.P,C2,2*%
%TO.N,/GND*%
X148900000Y-108675000D03*
%TD*%
%TO.P,C3,1*%
%TO.N,/+3V3*%
X152900000Y-107625000D03*
%TO.P,C3,2*%
%TO.N,/GND*%
X152900000Y-109175000D03*
%TD*%
D10*
%TO.P,R4,1*%
%TO.N,/BAT_SENSE*%
X158900000Y-110575000D03*
%TO.P,R4,2*%
%TO.N,/GND*%
X158900000Y-112225000D03*
%TD*%
%TO.P,R3,1*%
%TO.N,/VBAT*%
X158900000Y-107575000D03*
%TO.P,R3,2*%
%TO.N,/BAT_SENSE*%
X158900000Y-109225000D03*
%TD*%
D12*
%TO.P,C1,1*%
%TO.N,/+3V3*%
X141400000Y-107125000D03*
%TO.P,C1,2*%
%TO.N,/GND*%
X141400000Y-108675000D03*
%TD*%
D13*
%TO.P,U1,1,D0_/_GPIO0_1*%
%TO.N,unconnected-(U1-D0_{slash}_GPIO0-Pad1)*%
X143845000Y-80280000D03*
%TO.P,U1,2,D1_/_GPIO1_2*%
%TO.N,/BAT_SENSE*%
X143845000Y-82820000D03*
%TO.P,U1,3,D2_/_GPIO2_3*%
%TO.N,/ACC_INT1*%
X143845000Y-85360000D03*
%TO.P,U1,4,D3_/_GPIO21_4*%
%TO.N,unconnected-(U1-D3_{slash}_GPIO21-Pad4)*%
X143845000Y-87900000D03*
%TO.P,U1,5,D4_/_GPIO22_5*%
%TO.N,/I2C_SDA*%
X143845000Y-90440000D03*
%TO.P,U1,6,D5_/_GPIO23_6*%
%TO.N,/I2C_SCL*%
X143845000Y-92980000D03*
%TO.P,U1,7,D6_/_GPIO16_7*%
%TO.N,unconnected-(U1-D6_{slash}_GPIO16-Pad7)*%
X143845000Y-95520000D03*
%TO.P,U1,8,D7_/_GPIO17_8*%
%TO.N,unconnected-(U1-D7_{slash}_GPIO17-Pad8)*%
X160010000Y-95520000D03*
%TO.P,U1,9,D8_/_GPIO19_9*%
%TO.N,unconnected-(U1-D8_{slash}_GPIO19-Pad9)*%
X160010000Y-92980000D03*
%TO.P,U1,10,D9_/_GPIO20_10*%
%TO.N,unconnected-(U1-D9_{slash}_GPIO20-Pad10)*%
X160010000Y-90440000D03*
%TO.P,U1,11,D10_/_GPIO18_11*%
%TO.N,unconnected-(U1-D10_{slash}_GPIO18-Pad11)*%
X160010000Y-87900000D03*
%TO.P,U1,12,3V3_12*%
%TO.N,/+3V3*%
X160010000Y-85360000D03*
%TO.P,U1,13,GND_13*%
%TO.N,/GND*%
X160010000Y-82820000D03*
%TO.P,U1,14,5V_/_VBUS_14*%
%TO.N,unconnected-(U1-5V_{slash}_VBUS-Pad14)*%
X160010000Y-80280000D03*
D14*
%TO.P,U1,23,BAT+_23*%
%TO.N,/VBAT*%
X150118600Y-93431700D03*
%TO.P,U1,24,BAT-_24*%
%TO.N,/GND*%
X152658600Y-93431700D03*
%TD*%
D15*
%TO.P,U2,1,SDO_1*%
%TO.N,/GND*%
X144125000Y-105650000D03*
%TO.P,U2,2,SDX_/_SDA_2*%
%TO.N,/I2C_SDA*%
X144125000Y-106150000D03*
%TO.P,U2,3,VDDIO_3*%
%TO.N,/+3V3*%
X144125000Y-106650000D03*
%TO.P,U2,4,NC_4*%
%TO.N,unconnected-(U2-NC-Pad4)*%
X144125000Y-107150000D03*
D16*
%TO.P,U2,5,INT1_5*%
%TO.N,/ACC_INT1*%
X144650000Y-107175000D03*
%TO.P,U2,6,INT2_6*%
%TO.N,unconnected-(U2-INT2-Pad6)*%
X145150000Y-107175000D03*
D15*
%TO.P,U2,7,VDD_7*%
%TO.N,/+3V3*%
X145675000Y-107150000D03*
%TO.P,U2,8,GNDIO_8*%
%TO.N,/GND*%
X145675000Y-106650000D03*
%TO.P,U2,9,GND_9*%
X145675000Y-106150000D03*
%TO.P,U2,10,CSB_10*%
%TO.N,/+3V3*%
X145675000Y-105650000D03*
D16*
%TO.P,U2,11,NC_11*%
%TO.N,unconnected-(U2-NC-Pad11)*%
X145150000Y-105625000D03*
%TO.P,U2,12,SCX_/_SCL_12*%
%TO.N,/I2C_SCL*%
X144650000Y-105625000D03*
%TD*%
D17*
%TO.P,J1,1,-_1*%
%TO.N,/GND*%
X150900000Y-113400000D03*
D18*
%TO.P,J1,2,+_2*%
%TO.N,/VBAT*%
X152900000Y-113400000D03*
%TD*%
D19*
%TO.N,/+3V3*%
X162300000Y-85360000D03*
X152900000Y-106500000D03*
X140400000Y-107125000D03*
X149900000Y-107125000D03*
X141900000Y-100600000D03*
X139400000Y-100550000D03*
%TO.N,/I2C_SDA*%
X142900000Y-103225000D03*
X142900000Y-106050000D03*
%TO.N,/I2C_SCL*%
X140400000Y-99400000D03*
X145850000Y-92980000D03*
%TO.N,/BAT_SENSE*%
X157900000Y-109225000D03*
X141400000Y-82820000D03*
%TO.N,/GND*%
X148900000Y-109475000D03*
X162675000Y-110700000D03*
X162300000Y-82820000D03*
X153900000Y-93431700D03*
X139400000Y-105000000D03*
X141400000Y-109475000D03*
X152900000Y-109975000D03*
X146900000Y-106300000D03*
X158900000Y-113025000D03*
X142500000Y-105000000D03*
%TO.N,/VBAT*%
X158700000Y-101400000D03*
X150118600Y-91200000D03*
%TD*%
%TO.N,/+3V3*%
D20*
X147400000Y-107150000D02*
X148900000Y-107125000D01*
D21*
X152900000Y-107625000D02*
X152900000Y-106500000D01*
D20*
X148100000Y-106350000D02*
X148900000Y-107125000D01*
D21*
X141900000Y-101575000D02*
X141900000Y-100600000D01*
D22*
X160010000Y-85360000D02*
X162300000Y-85360000D01*
D20*
X145675000Y-105650000D02*
X147400000Y-105650000D01*
D21*
X139400000Y-101575000D02*
X139400000Y-100550000D01*
D20*
X145675000Y-107150000D02*
X147400000Y-107150000D01*
D21*
X141400000Y-107125000D02*
X140400000Y-107125000D01*
D20*
X147400000Y-105650000D02*
X148100000Y-106350000D01*
X142650000Y-106650000D02*
X141400000Y-107125000D01*
X144125000Y-106650000D02*
X142650000Y-106650000D01*
D21*
X148900000Y-107125000D02*
X149900000Y-107125000D01*
%TO.N,/I2C_SDA*%
X141150000Y-91820000D02*
X142980000Y-90440000D01*
X141150000Y-103225000D02*
X141150000Y-91820000D01*
X141900000Y-103225000D02*
X141150000Y-103225000D01*
X141900000Y-103225000D02*
X142900000Y-103225000D01*
X142980000Y-90440000D02*
X143845000Y-90440000D01*
D20*
X144125000Y-106150000D02*
X142900000Y-106050000D01*
%TO.N,/I2C_SCL*%
D21*
X139400000Y-103225000D02*
X140400000Y-103225000D01*
D20*
X143650000Y-103900000D02*
X139400000Y-103900000D01*
D21*
X145850000Y-92980000D02*
X143845000Y-92980000D01*
D20*
X144650000Y-105625000D02*
X144650000Y-104900000D01*
X139400000Y-103900000D02*
X139400000Y-103225000D01*
D21*
X140400000Y-103225000D02*
X140400000Y-99400000D01*
D20*
X144650000Y-104900000D02*
X143650000Y-103900000D01*
%TO.N,/BAT_SENSE*%
D21*
X159650000Y-109900000D02*
X161125000Y-109900000D01*
X158900000Y-109225000D02*
X159650000Y-109900000D01*
X158900000Y-109225000D02*
X157900000Y-109225000D01*
X141400000Y-82820000D02*
X143845000Y-82820000D01*
X158900000Y-109225000D02*
X158900000Y-110575000D01*
%TO.N,/GND*%
D20*
X144125000Y-105650000D02*
X142500000Y-105400000D01*
D21*
X162675000Y-109900000D02*
X162675000Y-110700000D01*
D22*
X160010000Y-82820000D02*
X162300000Y-82820000D01*
D21*
X142500000Y-105000000D02*
X139400000Y-105000000D01*
D22*
X152658600Y-93431700D02*
X153900000Y-93431700D01*
D20*
X146900000Y-106300000D02*
X146200000Y-106150000D01*
X146200000Y-106650000D02*
X146900000Y-106300000D01*
D21*
X152900000Y-109175000D02*
X152900000Y-109975000D01*
X148900000Y-108675000D02*
X148900000Y-109475000D01*
X158900000Y-112225000D02*
X158900000Y-113025000D01*
D20*
X142500000Y-105400000D02*
X142500000Y-105000000D01*
D21*
X141400000Y-108675000D02*
X141400000Y-109475000D01*
D20*
X146200000Y-106150000D02*
X145675000Y-106150000D01*
X145675000Y-106650000D02*
X146200000Y-106650000D01*
%TO.N,/VBAT*%
D23*
X152900000Y-111500000D02*
X158700000Y-105700000D01*
D24*
X158700000Y-105700000D02*
X158900000Y-105900000D01*
D23*
X152900000Y-113400000D02*
X152900000Y-111500000D01*
D21*
X152944354Y-113400000D02*
X152900000Y-113400000D01*
D23*
X150118600Y-93431700D02*
X150118600Y-91200000D01*
D24*
X158900000Y-105900000D02*
X158900000Y-107575000D01*
D21*
X158900000Y-101600000D02*
X158700000Y-101400000D01*
D23*
X152900000Y-114400000D02*
X152900000Y-113400000D01*
X158700000Y-101400000D02*
X158700000Y-105700000D01*
%TO.N,/ACC_INT1*%
D21*
X140321354Y-107827000D02*
X144423000Y-107827000D01*
X138673000Y-90532000D02*
X138673000Y-106178646D01*
X144423000Y-107827000D02*
X144650000Y-107600000D01*
X144650000Y-107600000D02*
X144650000Y-107175000D01*
X138673000Y-106178646D02*
X140321354Y-107827000D01*
X143845000Y-85360000D02*
X138673000Y-90532000D01*
%TD*%
M02*
